<svg width="128" height="44" viewBox="0 0 128 44" fill="none" xmlns="http://www.w3.org/2000/svg">
<path d="M18.3931 23.7401C18.3805 21.6089 19.3531 20.0027 21.317 18.8184C20.2186 17.256 18.5568 16.3966 16.3662 16.231C14.2921 16.0685 12.0229 17.431 11.192 17.431C10.3139 17.431 8.30587 16.2873 6.72589 16.2873C3.46524 16.3373 0 18.8684 0 24.0182C0 25.54 0.280114 27.1118 0.840343 28.7305C1.58941 30.8617 4.28984 36.0834 7.10672 35.999C8.57969 35.9646 9.62146 34.9615 11.5382 34.9615C13.3983 34.9615 14.3614 35.999 16.0043 35.999C18.8464 35.9584 21.2887 31.2117 22 29.0743C18.1886 27.29 18.3931 23.8495 18.3931 23.7401ZM15.0853 14.2092C16.681 12.328 16.5362 10.6156 16.489 10C15.079 10.0812 13.4486 10.9531 12.5202 12.0249C11.4973 13.1749 10.8961 14.5967 11.0252 16.1998C12.5485 16.3154 13.9396 15.5373 15.0853 14.2092Z" fill="#211D27"/>
<path d="M51.2305 36V10.6348H47.5566L38.873 31.623H38.5918L29.9082 10.6348H26.2344V36H29.1875V16.6289H29.3984L37.3965 35.8242H40.0684L48.0664 16.6289H48.2773V36H51.2305ZM70.6606 17.0508H67.6372V28.2656C67.6372 31.5879 65.8091 33.5742 62.4692 33.5742C59.4458 33.5742 58.1802 31.9922 58.1802 28.582V17.0508H55.1567V29.3203C55.1567 33.8027 57.3716 36.334 61.6255 36.334C64.5259 36.334 66.5473 35.1387 67.4966 33.0293H67.7778V36H70.6606V17.0508ZM73.9365 22.2363C73.9365 24.9785 75.5537 26.5078 79.1045 27.3691L82.3564 28.1602C84.3779 28.6523 85.3623 29.5312 85.3623 30.832C85.3623 32.5723 83.5341 33.7852 80.9853 33.7852C78.5595 33.7852 77.0478 32.7656 76.538 31.166H73.4267C73.7607 34.3125 76.6611 36.334 80.8798 36.334C85.1865 36.334 88.4736 33.9961 88.4736 30.6035C88.4736 27.8789 86.7509 26.332 83.1826 25.4707L80.2646 24.7676C78.0322 24.2227 76.9775 23.4141 76.9775 22.1133C76.9775 20.4258 78.7353 19.2832 80.9853 19.2832C83.2705 19.2832 84.747 20.2852 85.1513 21.7969H88.1396C87.7353 18.6855 84.9755 16.7168 81.0029 16.7168C76.9775 16.7168 73.9365 19.0898 73.9365 22.2363ZM91.31 36H94.3334V17.0508H91.31V36ZM92.8217 13.2012C93.9819 13.2012 94.9311 12.252 94.9311 11.0918C94.9311 9.93164 93.9819 8.98242 92.8217 8.98242C91.6616 8.98242 90.7123 9.93164 90.7123 11.0918C90.7123 12.252 91.6616 13.2012 92.8217 13.2012ZM113.799 22.8516C113.271 19.4766 110.459 16.7168 105.853 16.7168C100.545 16.7168 97.1698 20.5488 97.1698 26.4551C97.1698 32.4844 100.562 36.334 105.871 36.334C110.424 36.334 113.254 33.7676 113.799 30.2871H110.74C110.178 32.4316 108.402 33.6094 105.853 33.6094C102.478 33.6094 100.299 30.832 100.299 26.4551C100.299 22.166 102.443 19.4414 105.853 19.4414C108.578 19.4414 110.248 20.9707 110.74 22.8516H113.799Z" fill="#211D27"/>
</svg>
